<svg width="16" height="9" viewBox="0 0 16 9" fill="none" xmlns="http://www.w3.org/2000/svg">
<path d="M13.2142 0.628785L13.2142 0.628761L13.2124 0.630618L8.98084 5.02227L8.98039 5.02275L8.07352 5.97641L2.93548 0.630709C2.82358 0.514288 2.69723 0.41768 2.55579 0.356364C2.41902 0.297076 2.26866 0.2605 2.11601 0.2605C1.96005 0.2605 1.80688 0.283484 1.66253 0.357747C1.52945 0.415804 1.39192 0.498629 1.28602 0.608804L1.28592 0.608708L1.28249 0.612679C1.1837 0.726876 1.09196 0.856865 1.03371 1.00233C0.975002 1.14892 0.952857 1.3157 0.952857 1.46663C0.952857 1.62381 0.987714 1.77813 1.04327 1.92842L1.04324 1.92843L1.04423 1.93092C1.10249 2.07639 1.19461 2.20744 1.29655 2.3135L7.25444 8.51219C7.35943 8.62142 7.48664 8.70526 7.62361 8.76463L7.62359 8.76467L7.62623 8.76573C7.77135 8.8238 7.92101 8.8605 8.07391 8.8605C8.22656 8.8605 8.37692 8.82392 8.51368 8.76463C8.65066 8.70526 8.77786 8.62142 8.88285 8.51219L14.8407 2.3135L14.8408 2.31352L14.8426 2.31153C15.0507 2.08297 15.1529 1.78429 15.1529 1.47758C15.1529 1.16622 15.0265 0.867802 14.8197 0.652611C14.6022 0.426339 14.3247 0.304842 14.0233 0.304309C13.7204 0.292775 13.4318 0.414362 13.2142 0.628785Z" fill="#181725" stroke="#181725" stroke-width="0.2"/>
</svg>
