<svg width="11" height="18" viewBox="0 0 11 18" fill="none" xmlns="http://www.w3.org/2000/svg">
<g clip-path="url(#clip0_1_490)">
<path d="M10.0147 15.7263C10.2493 15.9835 10.3797 16.3218 10.3667 16.6737C10.3667 17.0256 10.2363 17.3504 9.98857 17.6075C9.75389 17.8511 9.42795 18 9.08897 18C8.74998 18 8.42404 17.8782 8.17632 17.6346L0.79692 9.97444C0.679579 9.85263 0.588315 9.70376 0.523126 9.54135C0.457937 9.37895 0.418823 9.20301 0.418823 9.02707C0.418823 8.85113 0.457937 8.67519 0.523126 8.49925C0.588315 8.33684 0.679579 8.18797 0.79692 8.06616L8.17632 0.406015C8.29366 0.284211 8.43708 0.17594 8.59353 0.108271C8.76302 0.0406015 8.93251 0 9.102 0C9.2715 0 9.45403 0.0270677 9.61048 0.0947368C9.76693 0.162406 9.91035 0.270677 10.0407 0.392481C10.1581 0.514286 10.2493 0.676692 10.3145 0.839098C10.3927 1.0015 10.4188 1.17744 10.4188 1.36692C10.4188 1.54286 10.3797 1.7188 10.3145 1.8812C10.2493 2.04361 10.145 2.19248 10.0147 2.32782L3.56094 9.02707L4.78649 10.2857L10.0147 15.7263Z" fill="#181725"/>
</g>
<defs>
<clipPath id="clip0_1_490">
<rect width="10" height="18" fill="white" transform="translate(0.418823)"/>
</clipPath>
</defs>
</svg>
