<svg width="15" height="16" viewBox="0 0 15 16" fill="none" xmlns="http://www.w3.org/2000/svg">
<path d="M14.5445 13.192L14.5436 13.191L10.1518 8.9593L10.1516 8.95907L9.15995 8.01613L14.5436 2.84164C14.6566 2.73306 14.7487 2.61198 14.8067 2.4781C14.8637 2.34655 14.8984 2.20294 14.8984 2.05819C14.8984 1.90653 14.876 1.7615 14.806 1.62615C14.7496 1.49647 14.6699 1.36455 14.5655 1.26422L14.5655 1.26417L14.5635 1.26246C14.4517 1.16569 14.3265 1.07771 14.188 1.02227C14.049 0.966595 13.8889 0.944995 13.7423 0.944995C13.5925 0.944995 13.4441 0.978215 13.2978 1.03231L13.2978 1.03229L13.2966 1.03279C13.1581 1.08824 13.0323 1.17641 12.93 1.27475L6.73109 7.23288C6.62718 7.33274 6.54693 7.45424 6.48986 7.58589L6.48984 7.58588L6.48932 7.5872C6.4329 7.72819 6.39812 7.87145 6.39812 8.01632C6.39812 8.16107 6.43284 8.30468 6.48986 8.43622C6.54693 8.56787 6.62718 8.68938 6.73109 8.78924L12.93 14.7474L12.93 14.7474L12.931 14.7483C13.1493 14.9471 13.4356 15.0455 13.7313 15.0455C14.0294 15.0455 14.3155 14.9245 14.5217 14.7263C14.7389 14.5176 14.8544 14.2525 14.8546 13.9649C14.8659 13.6766 14.7503 13.4007 14.5445 13.192Z" fill="#B3B3B3" stroke="#B3B3B3" stroke-width="0.1"/>
<path d="M0.990371 2.79865L0.991288 2.79955L5.38312 7.0313L5.38335 7.03153L6.37496 7.97447L0.991332 13.149C0.878359 13.2575 0.786245 13.3786 0.728206 13.5125C0.67118 13.644 0.636462 13.7877 0.636462 13.9324C0.636462 14.0841 0.658902 14.2291 0.728907 14.3644C0.785309 14.4941 0.865047 14.6261 0.969428 14.7264L0.96938 14.7264L0.971365 14.7281C1.08323 14.8249 1.20846 14.9129 1.34691 14.9683C1.48592 15.024 1.64598 15.0456 1.79263 15.0456C1.94242 15.0456 2.09077 15.0124 2.23711 14.9583L2.23711 14.9583L2.23836 14.9578C2.3768 14.9024 2.50257 14.8142 2.60489 14.7159L8.80383 8.75772C8.90773 8.65786 8.98798 8.53636 9.04505 8.40471L9.04507 8.40472L9.0456 8.4034C9.10201 8.26241 9.13679 8.11915 9.13679 7.97428C9.13679 7.82953 9.10208 7.68592 9.04505 7.55438C8.98798 7.42273 8.90773 7.30122 8.80383 7.20136L2.60489 1.24323L2.6049 1.24322L2.6039 1.24231C2.38557 1.04351 2.09933 0.945057 1.80359 0.945057C1.50552 0.945057 1.21941 1.06612 1.01324 1.26428C0.796053 1.47303 0.680538 1.73813 0.680272 2.02568C0.669028 2.31397 0.784589 2.58987 0.990371 2.79865Z" fill="#B3B3B3" stroke="#B3B3B3" stroke-width="0.1"/>
</svg>
