<svg width="31" height="30" viewBox="0 0 31 30" fill="none" xmlns="http://www.w3.org/2000/svg">
<g filter="url(#filter0_d_1_704)">
<path d="M7.74709 11.1167L15.5712 18.9408L23.3953 11.1167C24.087 10.425 24.4757 9.48679 24.4757 8.50851C24.4757 7.53023 24.087 6.59202 23.3953 5.90027C23.0528 5.55775 22.6461 5.28605 22.1986 5.10068C21.7511 4.91531 21.2714 4.8199 20.787 4.8199C19.8088 4.8199 18.8706 5.20852 18.1788 5.90027L15.5712 8.50789L12.9636 5.9015C12.2701 5.21903 11.335 4.83825 10.362 4.8421C9.38899 4.84595 8.45694 5.23411 7.76885 5.92204C7.08076 6.60997 6.69237 7.54193 6.6883 8.51491C6.68422 9.4879 7.06478 10.4231 7.74709 11.1167ZM14.702 4.16063L15.5712 5.02983L16.4404 4.16063C17.0103 3.58571 17.6881 3.12901 18.435 2.81677C19.1819 2.50452 19.9831 2.34288 20.7926 2.3411C21.6021 2.33933 22.404 2.49747 23.1523 2.80644C23.9005 3.11541 24.5804 3.56913 25.1528 4.14155C25.7252 4.71397 26.1789 5.39381 26.4879 6.14205C26.7969 6.89029 26.955 7.69218 26.9532 8.5017C26.9515 9.31122 26.7898 10.1124 26.4776 10.8593C26.1653 11.6062 25.7086 12.284 25.1337 12.8539L16.4416 21.5472C16.3274 21.6615 16.1918 21.7522 16.0426 21.8141C15.8933 21.876 15.7334 21.9078 15.5718 21.9078C15.4102 21.9078 15.2503 21.876 15.101 21.8141C14.9517 21.7522 14.8162 21.6615 14.702 21.5472L6.00867 12.8552C5.42593 12.2871 4.96179 11.609 4.64318 10.8601C4.32456 10.1113 4.15781 9.30661 4.15259 8.49281C4.14738 7.67902 4.30381 6.87229 4.6128 6.11942C4.9218 5.36655 5.37721 4.68253 5.95262 4.10704C6.52803 3.53155 7.21198 3.07604 7.96481 2.76694C8.71763 2.45784 9.52434 2.3013 10.3381 2.3064C11.1519 2.31149 11.9566 2.47813 12.7055 2.79664C13.4544 3.11515 14.1326 3.5792 14.7007 4.16186L14.702 4.16063Z" fill="#7C7C7C"/>
</g>
<defs>
<filter id="filter0_d_1_704" x="-0.947144" y="0.107056" width="32" height="32" filterUnits="userSpaceOnUse" color-interpolation-filters="sRGB">
<feFlood flood-opacity="0" result="BackgroundImageFix"/>
<feColorMatrix in="SourceAlpha" type="matrix" values="0 0 0 0 0 0 0 0 0 0 0 0 0 0 0 0 0 0 127 0" result="hardAlpha"/>
<feOffset dy="4"/>
<feGaussianBlur stdDeviation="2"/>
<feComposite in2="hardAlpha" operator="out"/>
<feColorMatrix type="matrix" values="0 0 0 0 0 0 0 0 0 0 0 0 0 0 0 0 0 0 0.25 0"/>
<feBlend mode="normal" in2="BackgroundImageFix" result="effect1_dropShadow_1_704"/>
<feBlend mode="normal" in="SourceGraphic" in2="effect1_dropShadow_1_704" result="shape"/>
</filter>
</defs>
</svg>
