<svg width="25" height="25" viewBox="0 0 25 25" fill="none" xmlns="http://www.w3.org/2000/svg">
<g clip-path="url(#clip0_1_1249)">
<path d="M5.43568 11.8434L13.2598 19.6675L21.0839 11.8434C21.7756 11.1517 22.1643 10.2135 22.1643 9.2352C22.1643 8.25693 21.7756 7.31871 21.0839 6.62697C20.7414 6.28445 20.3347 6.01275 19.8872 5.82738C19.4397 5.64201 18.96 5.5466 18.4756 5.5466C17.4974 5.5466 16.5592 5.93522 15.8674 6.62697L13.2598 9.23459L10.6522 6.6282C9.95865 5.94573 9.02356 5.56495 8.05057 5.56879C7.07759 5.57264 6.14554 5.9608 5.45745 6.64873C4.76935 7.33666 4.38097 8.26862 4.3769 9.24161C4.37282 10.2146 4.75338 11.1498 5.43568 11.8434ZM12.3906 4.88732L13.2598 5.75653L14.129 4.88732C14.6989 4.3124 15.3767 3.85571 16.1236 3.54347C16.8705 3.23122 17.6717 3.06957 18.4812 3.0678C19.2907 3.06603 20.0926 3.22416 20.8409 3.53314C21.5891 3.84211 22.269 4.29583 22.8414 4.86824C23.4138 5.44066 23.8675 6.12051 24.1765 6.86874C24.4855 7.61698 24.6436 8.41888 24.6418 9.2284C24.6401 10.0379 24.4784 10.8391 24.1662 11.586C23.8539 12.3329 23.3972 13.0107 22.8223 13.5806L14.1302 22.2739C14.016 22.3882 13.8804 22.4789 13.7312 22.5408C13.5819 22.6027 13.422 22.6345 13.2604 22.6345C13.0988 22.6345 12.9388 22.6027 12.7896 22.5408C12.6403 22.4789 12.5048 22.3882 12.3906 22.2739L3.69727 13.5819C3.11453 13.0138 2.65039 12.3357 2.33177 11.5868C2.01316 10.838 1.8464 10.0333 1.84119 9.21951C1.83598 8.40572 1.9924 7.59899 2.3014 6.84612C2.61039 6.09325 3.06581 5.40923 3.64122 4.83374C4.21663 4.25825 4.90058 3.80274 5.65341 3.49364C6.40623 3.18453 7.21294 3.02799 8.02674 3.03309C8.84053 3.03819 9.64521 3.20483 10.3941 3.52334C11.143 3.84185 11.8212 4.30589 12.3893 4.88855L12.3906 4.88732Z" fill="#53B175"/>
</g>
<defs>
<clipPath id="clip0_1_1249">
<rect width="24" height="24" fill="white" transform="translate(0.741455 0.83374)"/>
</clipPath>
</defs>
</svg>
